<?xml version="1.0" encoding="UTF-8" standalone="no"?>
<!-- Created with Inkscape (http://www.inkscape.org/) -->
<svg
   xmlns:dc="http://purl.org/dc/elements/1.1/"
   xmlns:cc="http://creativecommons.org/ns#"
   xmlns:rdf="http://www.w3.org/1999/02/22-rdf-syntax-ns#"
   xmlns:svg="http://www.w3.org/2000/svg"
   xmlns="http://www.w3.org/2000/svg"
   xmlns:sodipodi="http://sodipodi.sourceforge.net/DTD/sodipodi-0.dtd"
   xmlns:inkscape="http://www.inkscape.org/namespaces/inkscape"
   version="1.0"
   width="1023.55"
   height="371.91"
   id="svg2"
   sodipodi:version="0.32"
   inkscape:version="0.46"
   sodipodi:docname="Five_Myr_Climate_Change.svg"
   inkscape:output_extension="org.inkscape.output.svg.inkscape"
   sodipodi:docbase="D:\Wikipedia\Geologie\Bilder\output\svg">
  <metadata
     id="metadata90">
    <rdf:RDF>
      <cc:Work
         rdf:about="">
        <dc:format>image/svg+xml</dc:format>
        <dc:type
           rdf:resource="http://purl.org/dc/dcmitype/StillImage" />
      </cc:Work>
    </rdf:RDF>
  </metadata>
  <sodipodi:namedview
     inkscape:window-height="874"
     inkscape:window-width="1440"
     inkscape:pageshadow="2"
     inkscape:pageopacity="0.0"
     guidetolerance="10.0"
     gridtolerance="10.0"
     objecttolerance="10.0"
     borderopacity="1.0"
     bordercolor="#666666"
     pagecolor="#ffffff"
     id="base"
     width="1023.55px"
     height="371.91px"
     inkscape:zoom="0.79902439"
     inkscape:cx="474.07222"
     inkscape:cy="210.29102"
     inkscape:window-x="-4"
     inkscape:window-y="-4"
     inkscape:current-layer="svg2"
     showgrid="false" />
  <defs
     id="defs4">
    <inkscape:perspective
       sodipodi:type="inkscape:persp3d"
       inkscape:vp_x="0 : 185.955 : 1"
       inkscape:vp_y="0 : 1000 : 0"
       inkscape:vp_z="1023.55 : 185.955 : 1"
       inkscape:persp3d-origin="511.77499 : 123.97 : 1"
       id="perspective90" />
  </defs>
  <g
     style="display:inline"
     id="layer2"
     transform="matrix(-1,0,0,1,1020.8363,-14.2474)">
    <path
       d="M 182.459,33.085241 L 182.459,21.974748"
       style="fill:none;fill-rule:evenodd;stroke:#000000;stroke-width:1px;stroke-linecap:butt;stroke-linejoin:miter;stroke-opacity:1"
       id="path4181" />
    <path
       d="M 256.459,33.085241 L 256.459,21.974748"
       style="fill:none;fill-rule:evenodd;stroke:#000000;stroke-width:1px;stroke-linecap:butt;stroke-linejoin:miter;stroke-opacity:1"
       id="path4183" />
    <path
       d="M 332.259,33.085241 L 332.259,21.974748"
       style="fill:none;fill-rule:evenodd;stroke:#000000;stroke-width:1px;stroke-linecap:butt;stroke-linejoin:miter;stroke-opacity:1"
       id="path4185" />
    <path
       d="M 406.58656,33.085241 L 406.58656,21.974748"
       style="fill:none;fill-rule:evenodd;stroke:#000000;stroke-width:1px;stroke-linecap:butt;stroke-linejoin:miter;stroke-opacity:1"
       id="path4187" />
    <path
       d="M 482.38656,33.085241 L 482.38656,21.974748"
       style="fill:none;fill-rule:evenodd;stroke:#000000;stroke-width:1px;stroke-linecap:butt;stroke-linejoin:miter;stroke-opacity:1"
       id="path4189" />
    <path
       d="M 558.059,33.085241 L 558.059,21.974748"
       style="fill:none;fill-rule:evenodd;stroke:#000000;stroke-width:1px;stroke-linecap:butt;stroke-linejoin:miter;stroke-opacity:1"
       id="path4191" />
    <path
       d="M 632.059,33.085241 L 632.059,21.974748"
       style="fill:none;fill-rule:evenodd;stroke:#000000;stroke-width:1px;stroke-linecap:butt;stroke-linejoin:miter;stroke-opacity:1"
       id="path4193" />
    <path
       d="M 707.859,33.085241 L 707.859,21.974748"
       style="fill:none;fill-rule:evenodd;stroke:#000000;stroke-width:1px;stroke-linecap:butt;stroke-linejoin:miter;stroke-opacity:1"
       id="path4195" />
    <path
       d="M 782.18656,33.085241 L 782.18656,21.974748"
       style="fill:none;fill-rule:evenodd;stroke:#000000;stroke-width:1px;stroke-linecap:butt;stroke-linejoin:miter;stroke-opacity:1"
       id="path4197" />
    <path
       d="M 857.98656,33.085241 L 857.98656,21.974748"
       style="fill:none;fill-rule:evenodd;stroke:#000000;stroke-width:1px;stroke-linecap:butt;stroke-linejoin:miter;stroke-opacity:1"
       id="path4199" />
    <path
       d="M 182.459,321.28524 L 182.459,310.17475"
       style="fill:none;fill-rule:evenodd;stroke:#000000;stroke-width:1px;stroke-linecap:butt;stroke-linejoin:miter;stroke-opacity:1"
       id="path4201" />
    <path
       d="M 256.459,321.28524 L 256.459,310.17475"
       style="fill:none;fill-rule:evenodd;stroke:#000000;stroke-width:1px;stroke-linecap:butt;stroke-linejoin:miter;stroke-opacity:1"
       id="path4203" />
    <path
       d="M 332.259,321.28524 L 332.259,310.17475"
       style="fill:none;fill-rule:evenodd;stroke:#000000;stroke-width:1px;stroke-linecap:butt;stroke-linejoin:miter;stroke-opacity:1"
       id="path4205" />
    <path
       d="M 406.58656,321.28524 L 406.58656,310.17475"
       style="fill:none;fill-rule:evenodd;stroke:#000000;stroke-width:1px;stroke-linecap:butt;stroke-linejoin:miter;stroke-opacity:1"
       id="path4207" />
    <path
       d="M 482.38656,321.28524 L 482.38656,310.17475"
       style="fill:none;fill-rule:evenodd;stroke:#000000;stroke-width:1px;stroke-linecap:butt;stroke-linejoin:miter;stroke-opacity:1"
       id="path4209" />
    <path
       d="M 558.059,321.28524 L 558.059,310.17475"
       style="fill:none;fill-rule:evenodd;stroke:#000000;stroke-width:1px;stroke-linecap:butt;stroke-linejoin:miter;stroke-opacity:1"
       id="path4211" />
    <path
       d="M 632.059,321.28524 L 632.059,310.17475"
       style="fill:none;fill-rule:evenodd;stroke:#000000;stroke-width:1px;stroke-linecap:butt;stroke-linejoin:miter;stroke-opacity:1"
       id="path4213" />
    <path
       d="M 707.859,321.28524 L 707.859,310.17475"
       style="fill:none;fill-rule:evenodd;stroke:#000000;stroke-width:1px;stroke-linecap:butt;stroke-linejoin:miter;stroke-opacity:1"
       id="path4215" />
    <path
       d="M 782.18656,321.28524 L 782.18656,310.17475"
       style="fill:none;fill-rule:evenodd;stroke:#000000;stroke-width:1px;stroke-linecap:butt;stroke-linejoin:miter;stroke-opacity:1"
       id="path4217" />
    <path
       d="M 857.98656,321.28524 L 857.98656,310.17475"
       style="fill:none;fill-rule:evenodd;stroke:#000000;stroke-width:1px;stroke-linecap:butt;stroke-linejoin:miter;stroke-opacity:1"
       id="path4219" />
    <g
       transform="matrix(0,0.660276,-1,0,1242.45,-280.716)"
       id="g4233">
      <path
         d="M 482.38656,321.28524 L 482.38656,310.17475"
         style="fill:none;fill-rule:evenodd;stroke:#000000;stroke-width:1px;stroke-linecap:butt;stroke-linejoin:miter;stroke-opacity:1"
         id="path4221" />
      <path
         d="M 558.059,321.28524 L 558.059,310.17475"
         style="fill:none;fill-rule:evenodd;stroke:#000000;stroke-width:1px;stroke-linecap:butt;stroke-linejoin:miter;stroke-opacity:1"
         id="path4223" />
      <path
         d="M 632.059,321.28524 L 632.059,310.17475"
         style="fill:none;fill-rule:evenodd;stroke:#000000;stroke-width:1px;stroke-linecap:butt;stroke-linejoin:miter;stroke-opacity:1"
         id="path4225" />
      <path
         d="M 707.859,321.28524 L 707.859,310.17475"
         style="fill:none;fill-rule:evenodd;stroke:#000000;stroke-width:1px;stroke-linecap:butt;stroke-linejoin:miter;stroke-opacity:1"
         id="path4227" />
      <path
         d="M 782.18656,321.28524 L 782.18656,310.17475"
         style="fill:none;fill-rule:evenodd;stroke:#000000;stroke-width:1px;stroke-linecap:butt;stroke-linejoin:miter;stroke-opacity:1"
         id="path4229" />
      <path
         d="M 857.98656,321.28524 L 857.98656,310.17475"
         style="fill:none;fill-rule:evenodd;stroke:#000000;stroke-width:1px;stroke-linecap:butt;stroke-linejoin:miter;stroke-opacity:1"
         id="path4231" />
    </g>
    <path
       d="M 105.92762,143.08561 L 117.03811,143.08561"
       style="fill:none;fill-rule:evenodd;stroke:#000000;stroke-width:0.89403701px;stroke-linecap:butt;stroke-linejoin:miter;stroke-opacity:1"
       id="path4245" />
    <path
       d="M 105.92762,202.23392 L 117.03811,202.23392"
       style="fill:none;fill-rule:evenodd;stroke:#000000;stroke-width:0.89403701px;stroke-linecap:butt;stroke-linejoin:miter;stroke-opacity:1"
       id="path4247" />
    <path
       d="M 105.92762,262.82097 L 117.03811,262.82097"
       style="fill:none;fill-rule:evenodd;stroke:#000000;stroke-width:0.89403701px;stroke-linecap:butt;stroke-linejoin:miter;stroke-opacity:1"
       id="path4249" />
    <path
       d="M 105.53704,87.349219 C 933.12963,87.349219 933.12963,87.349219 933.12963,87.349219"
       style="opacity:0.56953598;fill:none;fill-rule:evenodd;stroke:#868686;stroke-width:2.5999999;stroke-linecap:butt;stroke-linejoin:miter;stroke-miterlimit:4;stroke-dasharray:15.6, 2.6;stroke-dashoffset:0;stroke-opacity:1"
       id="path4262" />
    <path
       d="M 105.53704,69.886256 C 271.05556,69.886256 271.05556,69.886256 271.05556,69.886256"
       style="fill:none;fill-rule:evenodd;stroke:#62ff4b;stroke-width:3.44408989;stroke-linecap:butt;stroke-linejoin:miter;stroke-miterlimit:4;stroke-dasharray:none;stroke-opacity:1"
       id="path5233" />
    <path
       d="M 287,69.886256 L 508.7037,69.886256"
       style="fill:none;fill-rule:evenodd;stroke:#62ff4b;stroke-width:3.44408989;stroke-linecap:butt;stroke-linejoin:miter;stroke-miterlimit:4;stroke-dasharray:none;stroke-opacity:1"
       id="path5235" />
    <path
       d="M 105.92762,82.48561 L 117.03811,82.48561"
       style="fill:none;fill-rule:evenodd;stroke:#000000;stroke-width:0.89403701px;stroke-linecap:butt;stroke-linejoin:miter;stroke-opacity:1"
       id="path5237" />
    <rect
       width="826.83331"
       height="299.14816"
       x="106.2963"
       y="22.052923"
       style="opacity:1;fill:none;fill-opacity:1;fill-rule:evenodd;stroke:#000000;stroke-width:2.82500005;stroke-linecap:butt;stroke-linejoin:miter;marker:none;stroke-miterlimit:4;stroke-dasharray:none;stroke-dashoffset:1;stroke-opacity:1;visibility:visible;display:inline;overflow:visible"
       id="rect2236" />
  </g>
  <path
     id="flowRoot5239"
     style="font-size:28px;font-style:normal;font-variant:normal;font-weight:normal;font-stretch:normal;text-align:start;line-height:100%;text-anchor:start;fill:#000000;fill-opacity:1;font-family:Arial Narrow"
     d="M 908.23277,326.95752 C 908.23276,323.59425 908.68621,321.04673 909.59312,319.31494 C 910.50002,317.58319 911.83758,316.7173 913.60581,316.71728 C 915.17351,316.7173 916.40854,317.41913 917.31089,318.82275 C 918.40463,320.51808 918.9515,323.22967 918.95152,326.95752 C 918.9515,330.30258 918.50033,332.84326 917.598,334.57959 C 916.69565,336.31592 915.3558,337.18408 913.57847,337.18408 C 912.01076,337.18408 910.72788,336.41846 909.72984,334.88721 C 908.73179,333.35596 908.23276,330.71273 908.23277,326.95752 L 908.23277,326.95752 z M 910.29722,326.95752 C 910.29722,330.21143 910.60939,332.39209 911.23374,333.49951 C 911.85809,334.60693 912.65789,335.16065 913.63316,335.16064 C 914.55372,335.16065 915.3239,334.6001 915.9437,333.479 C 916.56349,332.35791 916.87338,330.18409 916.87339,326.95752 C 916.87338,323.69451 916.56121,321.51157 915.93687,320.40869 C 915.31251,319.30584 914.50359,318.75441 913.51011,318.75439 C 912.59865,318.75441 911.8353,319.31496 911.22007,320.43603 C 910.60483,321.55714 910.29722,323.73097 910.29722,326.95752 L 910.29722,326.95752 z"
     sodipodi:nodetypes="cssssssscccssssssscc" />
  <text
     xml:space="preserve"
     id="text5247"
     style="font-size:24px;font-style:normal;font-weight:normal;fill:#000000;fill-opacity:1;stroke:none;stroke-width:1px;stroke-linecap:butt;stroke-linejoin:miter;stroke-opacity:1;font-family:Arial"
     y="326.21301"
     x="-785.46576"
     transform="scale(-1,1)"><tspan
       id="tspan5249"
       y="326.21301"
       x="-785.46576"> </tspan></text>
  <text
     sodipodi:linespacing="103%"
     xml:space="preserve"
     id="text5251"
     style="font-size:24px;font-style:normal;font-variant:normal;font-weight:normal;font-stretch:normal;text-align:end;line-height:102.99999714%;text-anchor:end;fill:#000000;fill-opacity:1;stroke:none;stroke-width:1px;stroke-linecap:butt;stroke-linejoin:miter;stroke-opacity:1;font-family:Arial"
     y="30.9167"
     x="81.034454"><tspan
       id="tspan5253"
       y="30.9167"
       x="81.034454">2</tspan><tspan
       id="tspan5255"
       y="55.6367"
       x="81.034454" /><tspan
       id="tspan5257"
       y="80.356697"
       x="81.034454">0</tspan><tspan
       id="tspan5259"
       y="105.077"
       x="81.034454" /><tspan
       id="tspan5261"
       y="129.797"
       x="81.034454">-2</tspan><tspan
       id="tspan5263"
       y="154.517"
       x="81.034454" /><tspan
       id="tspan5265"
       y="179.237"
       x="81.034454">-4</tspan><tspan
       id="tspan5267"
       y="203.957"
       x="81.034454" /><tspan
       id="tspan5269"
       y="228.677"
       x="81.034454">-6</tspan><tspan
       id="tspan5271"
       y="253.397"
       x="81.034454" /><tspan
       id="tspan5273"
       y="278.117"
       x="81.034454">-8</tspan></text>
  <text
     sodipodi:linespacing="124%"
     xml:space="preserve"
     id="text5275"
     style="font-size:24px;font-style:normal;font-variant:normal;font-weight:normal;font-stretch:normal;text-align:start;line-height:124.00000095%;writing-mode:lr-tb;text-anchor:start;fill:#000000;fill-opacity:1;stroke:none;stroke-width:1px;stroke-linecap:butt;stroke-linejoin:miter;stroke-opacity:1;font-family:Arial;-inkscape-font-specification:Arial"
     y="19.25"
     x="920.91058"><tspan
       id="tspan5277"
       y="19.25"
       x="920.91058"
       style="font-size:24px;font-style:normal;font-variant:normal;font-weight:normal;font-stretch:normal;text-align:start;line-height:124.00000095%;writing-mode:lr-tb;text-anchor:start;font-family:Arial;-inkscape-font-specification:Arial">2</tspan><tspan
       id="tspan5279"
       y="49.009998"
       x="920.91058"
       style="font-size:24px;font-style:normal;font-variant:normal;font-weight:normal;font-stretch:normal;text-align:start;line-height:124.00000095%;writing-mode:lr-tb;text-anchor:start;font-family:Arial;-inkscape-font-specification:Arial" /><tspan
       id="tspan5281"
       y="78.769997"
       x="920.91058"
       style="font-size:24px;font-style:normal;font-variant:normal;font-weight:normal;font-stretch:normal;text-align:start;line-height:124.00000095%;writing-mode:lr-tb;text-anchor:start;font-family:Arial;-inkscape-font-specification:Arial">2.5</tspan><tspan
       id="tspan5283"
       y="108.53"
       x="920.91058"
       style="font-size:24px;font-style:normal;font-variant:normal;font-weight:normal;font-stretch:normal;text-align:start;line-height:124.00000095%;writing-mode:lr-tb;text-anchor:start;font-family:Arial;-inkscape-font-specification:Arial" /><tspan
       id="tspan5285"
       y="138.28999"
       x="920.91058"
       style="font-size:24px;font-style:normal;font-variant:normal;font-weight:normal;font-stretch:normal;text-align:start;line-height:124.00000095%;writing-mode:lr-tb;text-anchor:start;font-family:Arial;-inkscape-font-specification:Arial">3</tspan><tspan
       id="tspan5287"
       y="168.05"
       x="920.91058"
       style="font-size:24px;font-style:normal;font-variant:normal;font-weight:normal;font-stretch:normal;text-align:start;line-height:124.00000095%;writing-mode:lr-tb;text-anchor:start;font-family:Arial;-inkscape-font-specification:Arial" /><tspan
       id="tspan5289"
       y="197.81"
       x="920.91058"
       style="font-size:24px;font-style:normal;font-variant:normal;font-weight:normal;font-stretch:normal;text-align:start;line-height:124.00000095%;writing-mode:lr-tb;text-anchor:start;font-family:Arial;-inkscape-font-specification:Arial">3.5</tspan><tspan
       id="tspan5291"
       y="227.57001"
       x="920.91058"
       style="font-size:24px;font-style:normal;font-variant:normal;font-weight:normal;font-stretch:normal;text-align:start;line-height:124.00000095%;writing-mode:lr-tb;text-anchor:start;font-family:Arial;-inkscape-font-specification:Arial" /><tspan
       id="tspan5293"
       y="257.32999"
       x="920.91058"
       style="font-size:24px;font-style:normal;font-variant:normal;font-weight:normal;font-stretch:normal;text-align:start;line-height:124.00000095%;writing-mode:lr-tb;text-anchor:start;font-family:Arial;-inkscape-font-specification:Arial">4</tspan><tspan
       id="tspan5295"
       y="287.09"
       x="920.91058"
       style="font-size:24px;font-style:normal;font-variant:normal;font-weight:normal;font-stretch:normal;text-align:start;line-height:124.00000095%;writing-mode:lr-tb;text-anchor:start;font-family:Arial;-inkscape-font-specification:Arial" /><tspan
       id="tspan5297"
       y="316.85001"
       x="920.91058"
       style="font-size:24px;font-style:normal;font-variant:normal;font-weight:normal;font-stretch:normal;text-align:start;line-height:124.00000095%;writing-mode:lr-tb;text-anchor:start;font-family:Arial;-inkscape-font-specification:Arial">4.5</tspan></text>
  <g
     id="g2244"
     transform="matrix(0,-1.10581,1.10581,0,701.08555,624.274)">
    <text
       sodipodi:linespacing="100%"
       xml:space="preserve"
       id="text2234"
       style="font-size:24px;font-style:normal;font-variant:normal;font-weight:normal;font-stretch:normal;text-align:center;line-height:100%;text-anchor:middle;fill:#000000;fill-opacity:1;stroke:none;stroke-width:1px;stroke-linecap:butt;stroke-linejoin:miter;stroke-opacity:1;font-family:Arial"
       y="258.94199"
       x="422.90701"><tspan
         id="tspan2236"
         y="258.94199"
         x="422.90701">δ   O Benthic</tspan><tspan
         id="tspan2238"
         y="282.94199"
         x="422.90701">Carbonate (per mil)</tspan></text>
    <text
       xml:space="preserve"
       id="text2240"
       style="font-size:16px;font-style:normal;font-weight:normal;fill:#000000;fill-opacity:1;stroke:none;stroke-width:1px;stroke-linecap:butt;stroke-linejoin:miter;stroke-opacity:1;font-family:Arial"
       y="245.608"
       x="365.83301"><tspan
         id="tspan2242"
         y="245.608"
         x="365.83301">18</tspan></text>
  </g>
  <text
     xml:space="preserve"
     id="text2251"
     style="font-size:24px;font-style:normal;font-weight:normal;text-align:center;text-anchor:middle;fill:#000000;fill-opacity:1;stroke:none;stroke-width:1px;stroke-linecap:butt;stroke-linejoin:miter;stroke-opacity:1;font-family:Arial"
     transform="matrix(0,-1,1,0,0,0)"
     y="17.179657"
     x="-163.645"><tspan
       id="tspan2253"
       y="17.179657"
       x="-163.645">Equivalent</tspan><tspan
       id="tspan2255"
       y="47.182648"
       x="-163.645">Vostok ΔT (°C)</tspan></text>
  <text
     xml:space="preserve"
     id="text2257"
     style="font-size:24px;font-style:normal;font-weight:normal;fill:#000000;fill-opacity:1;stroke:none;stroke-width:1px;stroke-linecap:butt;stroke-linejoin:miter;stroke-opacity:1;font-family:Arial"
     y="47.4907"
     x="759.91791"><tspan
       id="tspan2259"
       y="47.4907"
       x="759.91791">100 kyr cycle</tspan></text>
  <text
     xml:space="preserve"
     id="text2265"
     style="font-size:24px;font-style:normal;font-weight:normal;fill:#000000;fill-opacity:1;stroke:none;stroke-width:1px;stroke-linecap:butt;stroke-linejoin:miter;stroke-opacity:1;font-family:Arial"
     y="47.4907"
     x="567.58588"><tspan
       id="tspan2267"
       y="47.4907"
       x="567.58588">41 kyr cycle</tspan></text>
  <text
     sodipodi:linespacing="140%"
     xml:space="preserve"
     id="text2269"
     style="font-size:34.92386627px;font-style:normal;font-variant:normal;font-weight:normal;font-stretch:normal;text-align:center;line-height:139.99999762%;text-anchor:middle;fill:#000000;fill-opacity:1;stroke:none;stroke-width:1px;stroke-linecap:butt;stroke-linejoin:miter;stroke-opacity:1;font-family:Arial"
     transform="scale(0.9701032,1.0308181)"
     y="172.58733"
     x="279.69333"><tspan
       id="tspan2271"
       y="172.58733"
       x="279.69333">Five Million Years of</tspan><tspan
       id="tspan2273"
       y="221.48039"
       x="284.53638">Climate Change </tspan><tspan
       id="tspan2275"
       y="270.37347"
       x="279.69333">From Sediment Cores</tspan></text>
  <text
     sodipodi:linespacing="125%"
     xml:space="preserve"
     id="text2277"
     style="font-size:24px;font-style:normal;font-variant:normal;font-weight:normal;font-stretch:normal;text-align:start;line-height:125%;text-anchor:start;fill:#000000;fill-opacity:1;stroke:none;stroke-width:1px;stroke-linecap:butt;stroke-linejoin:miter;stroke-opacity:1;font-family:Arial"
     y="364.86099"
     x="341.86646"><tspan
       id="tspan2281"
       y="364.86099"
       x="341.86646">Millions of Years Ago</tspan></text>
  <g
     style="display:inline"
     id="layer4"
     transform="matrix(-1,0,0,1,1020.8363,-14.2474)">
    <path
       d="M 905.46705,28.169178 L 905.08508,52.997425 L 902.98422,41.156261 L 901.64732,62.355764 L 900.11943,42.493167 L 899.16449,52.424465 L 897.6366,42.30218 C 897.6366,42.30218 894.58082,77.252712 894.58082,76.106793 C 894.58082,74.960874 892.28898,37.90949 892.28898,37.90949 C 892.28898,37.90949 891.52503,63.692669 891.33405,62.737737 C 891.14306,61.782804 889.42418,48.222762 889.42418,48.222762 C 889.42418,48.222762 888.27826,67.130427 888.27826,65.793521 C 888.27826,64.456615 886.75037,44.021059 886.75037,44.021059 C 886.75037,44.021059 884.64952,91.5767 884.64952,90.621767 C 884.64952,89.666835 881.21176,43.257113 881.21176,43.257113 C 881.21176,43.257113 878.91992,61.400831 878.91992,59.29998 C 878.91992,57.199128 877.20105,23.585502 877.20105,23.585502 C 877.20105,23.585502 872.99934,72.669035 872.99934,70.950157 C 872.99934,69.231278 870.32553,24.540435 870.32553,24.540435 C 870.32553,24.540435 863.83199,86.993024 863.83199,86.038091 C 863.83199,85.083159 860.96719,34.280747 860.96719,34.280747 C 860.96719,34.280747 858.86634,61.209845 858.86634,59.490966 C 858.86634,57.772088 854.85562,34.08976 854.85562,34.08976 C 854.85562,34.08976 852.56379,87.374997 852.94576,85.465132 C 853.32773,83.555267 853.70971,60.063926 853.51872,58.918007 C 853.32773,57.772088 850.65392,45.930924 850.65392,45.930924 L 848.74406,74.005941 L 845.68827,38.100477 C 845.68827,38.100477 845.68827,61.782804 845.3063,59.681953 C 844.92433,57.581101 843.77841,48.604735 843.77841,48.604735 C 843.77841,48.604735 840.91361,101.69899 840.91361,100.17109 C 840.91361,98.643201 838.43078,48.986708 838.43078,48.986708 C 838.43078,48.986708 837.28487,71.714103 837.28487,70.950157 C 837.28487,70.186211 835.18401,65.984507 835.18401,66.93944 C 835.18401,67.894373 834.42007,103.79984 834.42007,102.46293 C 834.42007,101.12603 831.1733,44.785005 831.1733,44.785005 L 828.88146,83.93724 L 826.20765,56.435182 C 826.20765,56.435182 822.38792,90.430781 822.38792,89.666835 C 822.38792,88.902889 820.86003,49.177695 820.86003,49.177695 C 820.86003,49.177695 819.71411,72.287062 819.71411,70.75917 C 819.71411,69.231278 817.80424,54.525317 817.80424,54.525317 L 816.65832,82.218361 L 813.79352,56.626168 L 811.50169,87.75697 L 809.01886,47.649802 C 809.01886,47.649802 808.25492,56.626168 808.25492,55.862222 C 808.25492,55.098276 806.15406,51.851506 806.15406,51.851506 C 806.15406,51.851506 806.91801,63.310696 806.91801,62.54675 C 806.91801,61.782804 804.43519,57.963074 804.43519,57.963074 L 805.19913,80.117509 L 803.09828,59.108993 L 802.71631,65.029575 L 801.3794,61.782804 L 801.57039,70.75917 L 800.23348,67.321413 C 800.23348,67.321413 799.08756,85.465132 799.08756,83.93724 C 799.08756,82.409347 796.79572,63.310696 796.79572,63.310696 C 796.79572,63.310696 792.97599,88.902889 793.35797,86.038091 C 793.73994,83.173294 793.35797,61.782804 793.35797,61.782804 C 793.35797,61.782804 791.06613,68.849305 791.06613,67.703386 C 791.06613,66.557467 789.15626,43.639086 789.15626,43.639086 C 789.15626,43.639086 787.43739,78.016658 787.43739,75.72482 C 787.43739,73.432981 784.57259,40.583302 784.57259,40.583302 C 784.57259,40.583302 781.70779,81.836388 782.08976,80.117509 C 782.47174,78.398631 781.13483,57.008141 781.13483,57.008141 C 781.13483,57.008141 780.1799,69.422265 780.1799,67.130427 C 780.1799,64.838588 779.03398,51.08756 779.03398,51.08756 C 779.03398,51.08756 776.93313,57.963074 777.50609,55.480249 C 778.07905,52.997425 775.21425,49.559668 775.21425,49.559668 C 775.21425,49.559668 774.50777,70.110144 774.50777,68.009293 C 774.50777,65.908441 771.96748,51.08756 771.96748,51.08756 C 771.96748,51.08756 769.86663,82.79132 769.86663,81.645401 C 769.86663,80.499482 764.90098,38.100477 764.90098,38.100477 L 762.03618,75.342847 L 758.78941,33.516801 C 758.78941,33.516801 757.4525,68.276346 757.4525,65.984507 C 757.4525,63.692669 755.35165,44.785005 755.35165,44.785005 L 753.44179,49.750654 L 752.10488,69.995224 L 749.62206,59.872939 C 749.62206,59.872939 748.85811,68.467332 748.66712,67.5124 C 748.47614,66.557467 747.71219,51.278546 747.71219,51.278546 L 746.75726,67.703386 L 745.03838,62.54675 C 745.03838,62.54675 744.65641,80.690469 744.65641,78.780604 C 744.65641,76.870739 742.17358,55.289263 742.17358,55.289263 L 740.83668,65.793521 L 739.49977,47.840789 C 739.49977,47.840789 736.44399,79.54455 736.82596,78.780604 C 737.20793,78.016658 734.34314,48.222762 734.34314,48.222762 L 733.96116,67.894373 L 732.62426,63.310696 C 732.62426,63.310696 730.33242,87.565983 730.52341,86.038091 C 730.71439,84.510199 727.08565,44.403032 727.08565,44.403032 C 727.08565,44.403032 725.36677,66.748454 725.36677,65.793521 C 725.36677,64.838588 722.50197,48.604735 722.50197,48.604735 C 722.50197,48.604735 720.78309,76.870739 720.97408,75.533833 C 721.16507,74.196927 718.10928,66.366481 718.10928,66.366481 L 713.71659,91.194727 L 708.94193,60.445899 C 708.94193,60.445899 706.84108,102.46293 706.84108,101.508 C 706.84108,100.55307 704.74023,74.769887 704.74023,73.432981 C 704.74023,72.096076 701.11148,51.851506 701.11148,51.851506 C 701.11148,51.851506 698.43767,70.950157 698.43767,70.186211 C 698.43767,69.422265 697.48274,44.975991 697.48274,44.975991 C 697.48274,44.975991 695.1909,76.679752 695.38189,74.769887 C 695.57287,72.860022 694.23597,49.559668 694.23597,49.559668 C 694.23597,49.559668 691.56216,74.005941 691.56216,73.051008 C 691.56216,72.096076 689.84328,54.90729 689.84328,54.90729 C 689.84328,54.90729 688.31539,97.497282 688.50637,95.778403 C 688.69736,94.059525 684.66804,55.326476 684.66804,55.326476 L 682.77678,48.222762 C 682.77678,48.222762 681.0579,98.452214 681.24889,96.733336 C 681.43987,95.014457 679.53001,64.074642 679.53001,64.074642 L 678.00211,77.825671 C 678.00211,77.825671 676.47422,91.5767 676.47422,90.812754 C 676.47422,90.048808 674.75534,61.782804 674.75534,61.782804 C 674.75534,61.782804 672.27252,77.825671 672.65449,76.679752 C 673.03647,75.533833 671.31759,51.278546 671.31759,51.278546 C 671.31759,51.278546 668.45279,90.239794 668.83476,89.284862 C 669.21674,88.329929 665.39701,46.12191 665.39701,46.12191 C 665.39701,46.12191 663.67813,102.08096 663.86911,101.12603 C 664.0601,100.17109 660.62234,57.008141 660.62234,57.008141 C 660.62234,57.008141 657.56656,119.46073 657.75754,118.12383 C 657.94853,116.78692 654.70176,60.636885 654.70176,60.636885 L 651.264,114.87705 L 648.39921,56.626168 C 648.39921,56.626168 644.38849,90.621767 644.38849,88.902889 C 644.38849,87.18401 643.05158,52.806438 643.05158,52.806438 L 640.56876,82.409347 L 637.70396,56.053209 C 637.70396,56.053209 636.55804,89.475848 636.55804,88.329929 C 636.55804,87.18401 632.35634,57.772088 632.35634,57.772088 L 630.63746,71.714103 L 628.72759,52.042492 C 628.72759,52.042492 626.43576,95.778403 626.62674,93.486565 C 626.81773,91.194727 622.80701,52.615452 622.80701,52.615452 C 622.80701,52.615452 621.66109,92.531633 621.66109,90.430781 C 621.66109,88.329929 619.36926,63.11971 619.36926,63.11971 L 618.22334,83.173294 L 615.74051,76.488766 C 615.74051,76.488766 613.63966,108.95647 613.63966,108.19253 C 613.63966,107.42858 611.34782,78.589617 611.34782,78.589617 L 607.91007,113.54015 L 604.47231,78.016658 C 604.47231,78.016658 600.84356,155.74817 601.22554,154.02929 C 601.60751,152.31041 599.50666,95.96939 599.50666,95.96939 C 599.50666,95.96939 595.68693,106.47365 596.25989,103.99082 C 596.83285,101.508 594.15904,69.231278 594.15904,69.231278 C 594.15904,69.231278 591.67621,96.160376 591.8672,95.014457 C 592.05818,93.868538 588.42944,65.029575 588.42944,65.029575 C 588.42944,65.029575 586.90155,79.926523 587.09254,77.443698 C 587.28352,74.960874 585.18267,60.445899 585.18267,60.445899 C 585.18267,60.445899 583.65478,90.621767 583.65478,88.520916 C 583.65478,86.420064 579.83505,59.872939 579.83505,59.872939 C 579.83505,59.872939 575.82433,123.47145 576.77926,121.17961 C 577.7342,118.88777 572.76855,72.860022 572.76855,72.860022 C 572.76855,72.860022 571.81361,89.093875 571.81361,88.138943 C 571.81361,87.18401 570.09474,59.490966 570.09474,59.490966 C 570.09474,59.490966 568.37586,78.016658 568.56684,77.252712 C 568.75783,76.488766 566.27501,60.827872 566.27501,60.827872 C 566.27501,60.827872 564.74711,106.47365 564.74711,103.99082 C 564.74711,101.508 561.88232,76.106793 561.88232,76.106793 L 559.59048,127.86414 L 555.57976,74.005941 C 555.57976,74.005941 553.47891,124.80835 554.05187,123.28046 C 554.62483,121.75257 549.46819,55.480249 549.46819,55.480249 C 549.46819,55.480249 546.41241,128.24611 546.41241,126.71822 C 546.41241,125.19033 541.44676,83.36428 541.44676,83.36428 C 541.44676,83.36428 540.8738,125.5723 540.8738,124.80835 C 540.8738,124.04441 536.09914,88.329929 536.09914,88.329929 C 536.09914,88.329929 533.99829,128.81907 534.38026,124.99934 C 534.76223,121.17961 531.89743,78.780604 531.89743,78.780604 L 527.50474,159.94987 L 525.02192,84.701186 C 525.02192,84.701186 522.92107,105.7097 522.92107,102.8449 C 522.92107,99.980106 521.96614,80.881455 521.96614,80.881455 C 521.96614,80.881455 520.43824,102.65392 520.82022,97.879255 C 521.20219,93.104592 517.76443,70.186211 517.76443,70.186211 C 517.76443,70.186211 514.32667,170.26314 514.32667,169.30821 C 514.32667,168.35328 512.22582,123.08947 512.22582,123.08947 C 512.22582,123.08947 509.36103,162.81467 510.31596,156.51211 C 511.27089,150.20956 506.30524,72.478049 506.30524,72.478049 C 506.30524,72.478049 502.6765,170.45413 503.44044,166.82539 C 504.20439,163.19664 500.19367,92.531633 500.19367,92.531633 C 500.19367,92.531633 496.75592,175.03781 497.32888,174.08287 C 497.90183,173.12794 494.84605,85.274145 494.84605,85.274145 C 494.84605,85.274145 491.79027,143.14306 492.17224,142.18813 C 492.55421,141.23319 488.92547,87.947956 488.92547,87.947956 L 485.6787,201.20296 L 482.04995,88.711902 L 481.28601,202.53986 L 476.51135,89.475848 C 476.51135,89.475848 472.11866,204.64071 472.30964,203.87677 C 472.50063,203.11282 468.87189,99.598133 468.87189,99.598133 C 468.87189,99.598133 467.72597,152.31041 467.72597,147.91772 C 467.72597,143.52503 463.90624,95.205444 463.90624,95.205444 C 463.90624,95.205444 460.85045,182.48628 461.23242,181.14937 C 461.6144,179.81247 458.55861,90.048808 458.55861,90.048808 C 458.55861,90.048808 455.12086,159.37691 455.12086,157.08507 C 455.12086,154.79324 451.87409,98.452214 451.87409,98.452214 C 451.87409,98.452214 448.24534,175.61076 448.62731,174.08287 C 449.00929,172.55498 445.18956,91.194727 445.18956,91.194727 L 442.89772,186.68798 L 440.79687,112.01226 L 437.16812,167.78032 L 434.6853,110.10239 L 430.4836,214.19004 L 427.80979,93.104592 C 427.80979,93.104592 424.754,156.51211 424.754,151.73745 C 424.754,146.96279 421.31624,118.12383 421.31624,118.12383 C 421.31624,118.12383 418.37826,226.19248 418.37826,219.44009 C 418.37826,212.6877 415.13711,139.49176 415.13711,139.49176 C 415.13711,139.49176 413.24644,178.65564 414.05673,175.68458 C 414.86702,172.71353 410.54549,93.30539 410.54549,93.30539 C 410.54549,93.30539 406.49405,181.0865 407.84453,175.95468 C 409.19501,170.82286 404.06319,105.4597 404.06319,105.4597 L 399.20147,205.66521 L 396.7706,121.66544 C 396.7706,121.66544 393.52946,189.18937 393.52946,187.56879 C 393.52946,185.94822 390.28831,137.33099 390.28831,137.33099 C 390.28831,137.33099 384.07611,213.49798 386.23687,208.63626 C 388.39764,203.77454 384.6163,133.54965 384.6163,133.54965 C 384.6163,133.54965 383.26582,150.56568 383.26582,148.67501 C 383.26582,146.78434 382.18544,115.72333 382.18544,115.72333 C 382.18544,115.72333 380.83496,151.10587 380.83496,148.13482 C 380.83496,145.16377 378.134,127.60755 378.134,127.60755 C 378.134,127.60755 378.94429,183.24726 378.94429,181.89678 C 378.94429,180.54631 376.51343,171.90324 376.51343,171.90324 C 376.51343,171.90324 374.35266,196.21186 374.89285,192.97071 C 375.43304,189.72956 372.73209,113.02238 372.73209,113.02238 C 372.73209,113.02238 368.95075,210.79703 369.49094,209.71664 C 370.03113,208.63626 368.14046,137.60109 368.14046,137.60109 C 368.14046,137.60109 366.24979,171.63315 366.78998,166.77142 C 367.33017,161.9097 365.16941,128.14774 365.16941,128.14774 C 365.16941,128.14774 363.27874,205.66521 363.27874,204.58482 C 363.27874,203.50444 359.2273,132.73936 359.2273,132.73936 C 359.2273,132.73936 354.36558,221.33076 355.17586,218.8999 C 355.98615,216.46904 352.47491,132.73936 352.47491,132.73936 C 352.47491,132.73936 349.23376,175.41449 349.23376,173.52382 C 349.23376,171.63315 347.34309,109.78123 347.34309,109.78123 C 347.34309,109.78123 342.75146,218.08961 343.29165,213.22789 C 343.83184,208.36616 341.67108,133.27956 341.67108,133.27956 L 337.34955,232.67478 L 334.64859,143.81329 C 334.64859,143.81329 331.13735,229.97382 331.13735,228.89344 C 331.13735,227.81306 328.43639,101.94845 328.43639,101.94845 C 328.43639,101.94845 324.92514,225.92239 325.19524,223.49152 C 325.46534,221.06066 322.76438,93.575486 322.76438,93.575486 C 322.76438,93.575486 317.36246,235.91593 317.63256,234.29535 C 317.90266,232.67478 316.28208,124.90659 316.28208,124.90659 L 313.31103,216.73913 L 310.06988,114.91305 C 310.06988,114.91305 307.36892,210.79703 307.63902,208.90636 C 307.90911,207.01569 304.39787,136.25061 304.39787,136.25061 C 304.39787,136.25061 300.88663,229.16353 300.88663,228.08315 C 300.88663,227.00277 299.26605,132.19917 299.26605,132.19917 L 294.67442,227.27286 L 292.51366,104.10922 C 292.51366,104.10922 287.38184,238.34679 287.38184,237.26641 C 287.38184,236.18602 281.97993,128.68793 281.97993,128.68793 L 276.30792,246.44966 L 273.06677,145.97405 L 271.71629,220.25038 L 267.39476,89.794146 L 266.31437,211.87741 L 265.50409,199.7231 L 262.26294,246.98985 L 260.64236,134.08984 C 260.64236,134.08984 257.40122,221.87095 257.94141,219.44009 C 258.4816,217.00923 256.86102,165.96114 256.86102,165.96114 C 256.86102,165.96114 255.51055,215.92884 255.51055,213.49798 C 255.51055,211.06712 253.88997,151.91616 253.88997,151.91616 C 253.88997,151.91616 250.37873,256.17311 251.18901,254.55253 C 251.9993,252.93196 249.02825,101.13817 249.02825,101.13817 L 245.517,251.85157 L 242.81605,184.05755 L 238.49452,268.05732 L 236.33375,116.26353 C 236.33375,116.26353 226.8804,273.72933 226.8804,272.37885 C 226.8804,271.02837 223.63925,123.01592 223.63925,123.01592 C 223.63925,123.01592 219.58782,268.32741 219.85791,265.35636 C 220.12801,262.38531 216.34667,188.37908 216.34667,188.37908 C 216.34667,188.37908 215.26628,275.3499 215.53638,273.18914 C 215.80648,271.02837 210.94475,125.17668 210.94475,125.17668 L 202.03159,314.24368 L 198.62597,124.42638 C 198.62597,124.42638 191.36848,234.05264 194.42427,224.88528 C 197.48005,215.71793 193.66032,112.58522 193.66032,112.58522 C 193.66032,112.58522 187.93073,252.76932 188.69467,249.71353 C 189.45862,246.65775 185.25692,166.44341 185.25692,166.44341 C 185.25692,166.44341 184.111,219.15569 184.111,215.33596 C 184.111,211.51623 180.67324,121.75257 180.67324,121.75257 L 171.50589,313.12105 L 167.68616,80.499483 C 167.68616,80.499483 157.75486,283.32716 157.75486,280.65335 C 157.75486,277.97953 155.46302,89.666835 155.46302,89.666835 C 155.46302,89.666835 152.02526,226.0312 152.40724,224.12134 C 152.78921,222.21147 148.20553,165.29749 148.20553,165.29749 L 143.62186,257.35299 L 143.23988,118.31481 C 143.23988,118.31481 141.33002,240.92815 141.33002,238.25434 C 141.33002,235.58053 137.89226,129.39203 137.89226,129.39203 L 134.83648,256.20707 L 132.92661,220.68358 C 132.92661,220.68358 127.57899,301.66186 127.96096,299.752 C 128.34294,297.84213 124.52321,77.443698 124.52321,77.443698 C 124.52321,77.443698 122.99531,201.9669 123.37729,199.67507 C 123.75926,197.38323 120.70348,155.74817 120.70348,155.74817 C 120.70348,155.74817 120.3215,208.46044 120.70348,206.55058 C 121.08545,204.64071 118.41164,162.62368 118.41164,162.62368 C 118.41164,162.62368 116.50177,258.88088 116.50177,256.58905 C 116.50177,254.29721 115.73783,224.12134 115.73783,224.12134 L 109.62626,307.39146 L 106.1885,86.611051"
       style="fill:none;fill-opacity:1;fill-rule:evenodd;stroke:#0831e4;stroke-width:2;stroke-linecap:butt;stroke-linejoin:miter;stroke-miterlimit:4;stroke-dasharray:none;stroke-opacity:0.91134799"
       id="path2283" />
  </g>
  <path
     style="font-size:28px;font-style:normal;font-variant:normal;font-weight:normal;font-stretch:normal;text-align:start;line-height:100%;text-anchor:start;font-family:Arial Narrow;fill:#000000;fill-opacity:1"
     d="M 105.5625,317.0625 L 105.5625,319.4375 L 99,319.4375 L 98.125,324.8125 C 99.100249,323.97397 100.125,323.56251 101.21875,323.5625 C 102.59505,323.56251 103.79622,324.14129 104.8125,325.3125 C 105.82877,326.48373 106.34373,328.07553 106.34375,330.0625 C 106.34373,332.02214 105.82877,333.69466 104.8125,335.09375 C 103.79622,336.49284 102.43229,337.1875 100.71875,337.1875 C 99.296871,337.1875 98.10481,336.67644 97.125,335.6875 C 96.145182,334.69857 95.57422,333.34376 95.4375,331.59375 L 97.5625,331.375 C 97.726556,332.65104 98.10872,333.5944 98.6875,334.21875 C 99.266268,334.8431 99.92187,335.15626 100.6875,335.15625 C 101.64452,335.15626 102.46353,334.72331 103.15625,333.84375 C 103.84895,332.96419 104.18749,331.77214 104.1875,330.25 C 104.18749,328.81902 103.85741,327.69467 103.1875,326.90625 C 102.51757,326.11785 101.69921,325.71876 100.6875,325.71875 C 100.07682,325.71876 99.50195,325.90821 98.96875,326.25 C 98.435539,326.5918 97.99739,327.04558 97.6875,327.65625 L 95.78125,327.375 L 97.40625,317.0625 L 105.5625,317.0625 z M 86.375,317.0625 L 86.375,319.4375 L 79.8125,319.4375 L 78.9375,324.8125 C 79.91275,323.97397 80.9375,323.56251 82.03125,323.5625 C 83.407546,323.56251 84.60871,324.14129 85.625,325.3125 C 86.641259,326.48373 87.12499,328.07553 87.125,330.0625 C 87.124993,332.02214 86.64126,333.69466 85.625,335.09375 C 84.608709,336.49284 83.244789,337.1875 81.53125,337.1875 C 80.10937,337.1875 78.88607,336.67644 77.90625,335.6875 C 76.92643,334.69857 76.38672,333.34376 76.25,331.59375 L 78.375,331.375 C 78.53906,332.65104 78.88997,333.5944 79.46875,334.21875 C 80.04752,334.8431 80.73437,335.15626 81.5,335.15625 C 82.45702,335.15626 83.27603,334.72331 83.96875,333.84375 C 84.66145,332.96419 84.99999,331.77214 85,330.25 C 84.999987,328.81902 84.66991,327.69467 84,326.90625 C 83.33007,326.11785 82.48046,325.71876 81.46875,325.71875 C 80.85806,325.71876 80.28319,325.90821 79.75,326.25 C 79.21679,326.5918 78.80989,327.04558 78.5,327.65625 L 76.59375,327.375 L 78.1875,317.0625 L 86.375,317.0625 z M 92.53125,334.03125 L 92.53125,336.84375 L 90.25,336.84375 L 90.25,334.03125 L 92.53125,334.03125 z"
     id="path2578" />
  <path
     style="fill:#000000;fill-opacity:1;fill-rule:evenodd;stroke:none;stroke-width:1px;stroke-linecap:butt;stroke-linejoin:miter;stroke-opacity:1"
     d="M 169.5625,317.0625 L 169.5625,319.4375 L 163,319.4375 L 162.125,324.8125 C 163.10026,323.97397 164.12499,323.56251 165.21875,323.5625 C 166.59504,323.56251 167.79622,324.14129 168.8125,325.3125 C 169.82877,326.48373 170.34374,328.07553 170.34375,330.0625 C 170.34374,332.02214 169.82877,333.69466 168.8125,335.09375 C 167.79622,336.49284 166.43228,337.1875 164.71875,337.1875 C 163.29687,337.1875 162.10481,336.67644 161.125,335.6875 C 160.14518,334.69857 159.57422,333.34376 159.4375,331.59375 L 161.5625,331.375 C 161.72655,332.65104 162.10872,333.5944 162.6875,334.21875 C 163.26627,334.8431 163.92187,335.15626 164.6875,335.15625 C 165.64453,335.15626 166.46354,334.72331 167.15625,333.84375 C 167.84895,332.96419 168.21874,331.77214 168.21875,330.25 C 168.21874,328.81902 167.88866,327.69467 167.21875,326.90625 C 166.54882,326.11785 165.69921,325.71876 164.6875,325.71875 C 164.07682,325.71876 163.50195,325.90821 162.96875,326.25 C 162.43554,326.5918 161.99739,327.04558 161.6875,327.65625 L 159.8125,327.375 L 161.40625,317.0625 L 169.5625,317.0625 z"
     id="rect3373" />
  <path
     style="font-size:28px;font-style:normal;font-variant:normal;font-weight:normal;font-stretch:normal;text-align:start;line-height:100%;text-anchor:start;font-family:Arial Narrow;fill:#000000;fill-opacity:1"
     d="M 232.5625,316.8125 L 232.5625,329.78125 L 234.8125,329.78125 L 234.8125,332.03125 L 232.5625,332.03125 L 232.5625,336.84375 L 230.53125,336.84375 L 230.53125,332.03125 L 223.4375,332.03125 L 223.4375,329.78125 L 230.9375,316.8125 L 232.5625,316.8125 z M 253.40625,317.0625 L 253.40625,319.4375 L 246.84375,319.4375 L 245.96875,324.8125 C 246.944,323.97397 247.96875,323.56251 249.0625,323.5625 C 250.4388,323.56251 251.63996,324.14129 252.65625,325.3125 C 253.67251,326.48373 254.15624,328.07553 254.15625,330.0625 C 254.15624,332.02214 253.67251,333.69466 252.65625,335.09375 C 251.63996,336.49284 250.27604,337.1875 248.5625,337.1875 C 247.14062,337.1875 245.91732,336.67644 244.9375,335.6875 C 243.95768,334.69857 243.41797,333.34376 243.28125,331.59375 L 245.40625,331.375 C 245.57031,332.65104 245.92122,333.5944 246.5,334.21875 C 247.07877,334.8431 247.76562,335.15626 248.53125,335.15625 C 249.48827,335.15626 250.30728,334.72331 251,333.84375 C 251.6927,332.96419 252.03124,331.77214 252.03125,330.25 C 252.03124,328.81902 251.70116,327.69467 251.03125,326.90625 C 250.36132,326.11785 249.51171,325.71876 248.5,325.71875 C 247.88931,325.71876 247.31444,325.90821 246.78125,326.25 C 246.24804,326.5918 245.84114,327.04558 245.53125,327.65625 L 243.625,327.375 L 245.21875,317.0625 L 253.40625,317.0625 z M 230.53125,320.75 L 225.40625,329.78125 L 230.53125,329.78125 L 230.53125,320.75 z M 240.375,334.03125 L 240.375,336.84375 L 238.09375,336.84375 L 238.09375,334.03125 L 240.375,334.03125 z"
     id="path3378" />
  <path
     style="font-size:28px;font-style:normal;font-variant:normal;font-weight:normal;font-stretch:normal;text-align:start;line-height:100%;text-anchor:start;fill:#000000;fill-opacity:1;font-family:Arial Narrow"
     d="M 315.9375,316.8125 L 315.9375,329.78125 L 318.15625,329.78125 L 318.15625,332.03125 L 315.9375,332.03125 L 315.9375,336.84375 L 313.90625,336.84375 L 313.90625,332.03125 L 306.78125,332.03125 L 306.78125,329.78125 L 314.28125,316.8125 L 315.9375,316.8125 z M 313.90625,320.75 L 308.75,329.78125 L 313.90625,329.78125 L 313.90625,320.75 z"
     id="path3383" />
  <path
     style="font-size:28px;font-style:normal;font-variant:normal;font-weight:normal;font-stretch:normal;text-align:start;line-height:100%;text-anchor:start;fill:#000000;fill-opacity:1;font-family:Arial Narrow"
     d="M 375.75,316.71875 C 377.08074,316.71876 378.22655,317.20314 379.15625,318.1875 C 380.08594,319.17189 380.53124,320.41147 380.53125,321.90625 C 380.53125,322.81772 380.33398,323.64194 379.9375,324.34375 C 379.54102,325.04558 378.99218,325.59897 378.28125,326 C 378.9375,326.1823 379.47786,326.45574 379.90625,326.875 C 380.33464,327.29428 380.67316,327.86069 380.9375,328.5625 C 381.2018,329.26433 381.34374,330.07162 381.34375,330.9375 C 381.34375,332.77865 380.80337,334.26628 379.71875,335.4375 C 378.63409,336.60872 377.32552,337.1875 375.8125,337.1875 C 374.40886,337.1875 373.22526,336.67709 372.25,335.65625 C 371.27475,334.63542 370.73046,333.28516 370.59375,331.5625 L 372.59375,331.21875 C 373.01303,333.84376 374.07682,335.15626 375.78125,335.15625 C 376.70183,335.15626 377.51301,334.7793 378.1875,334 C 378.86196,333.2207 379.18749,332.20834 379.1875,330.96875 C 379.18748,329.80209 378.90103,328.8672 378.28125,328.15625 C 377.66146,327.44532 376.90233,327.09376 376,327.09375 C 375.61717,327.09376 375.1276,327.16147 374.5625,327.34375 L 374.78125,325.1875 L 375.125,325.21875 C 376.11847,325.21876 376.91145,324.92319 377.53125,324.3125 C 378.15102,323.70183 378.46874,322.8646 378.46875,321.84375 C 378.46873,320.90496 378.20702,320.16343 377.6875,319.59375 C 377.16795,319.02411 376.52864,318.75002 375.78125,318.75 C 375.00649,318.75002 374.3457,319.02801 373.8125,319.625 C 373.27931,320.22202 372.95833,321.13152 372.8125,322.34375 L 370.78125,321.90625 C 371.03647,320.19272 371.60677,318.90627 372.5,318.03125 C 373.39323,317.15626 374.48307,316.71877 375.75,316.71875 z M 399.875,317.0625 L 399.875,319.4375 L 393.34375,319.4375 L 392.4375,324.8125 C 393.41277,323.97397 394.46874,323.56251 395.5625,323.5625 C 396.9388,323.56251 398.10871,324.14129 399.125,325.3125 C 400.14125,326.48373 400.65624,328.07553 400.65625,330.0625 C 400.65625,332.02214 400.14126,333.69466 399.125,335.09375 C 398.1087,336.49284 396.74478,337.1875 395.03125,337.1875 C 393.60938,337.1875 392.41731,336.67644 391.4375,335.6875 C 390.45769,334.69857 389.91796,333.34376 389.78125,331.59375 L 391.875,331.375 C 392.03905,332.65104 392.42122,333.5944 393,334.21875 C 393.57879,334.8431 394.26562,335.15626 395.03125,335.15625 C 395.98826,335.15626 396.80728,334.72331 397.5,333.84375 C 398.19268,332.96419 398.53124,331.77214 398.53125,330.25 C 398.53123,328.81902 398.20117,327.69467 397.53125,326.90625 C 396.86133,326.11785 396.01172,325.71876 395,325.71875 C 394.38933,325.71876 393.81445,325.90821 393.28125,326.25 C 392.74806,326.5918 392.34114,327.04558 392.03125,327.65625 L 390.125,327.375 L 391.71875,317.0625 L 399.875,317.0625 z M 386.875,334.03125 L 386.875,336.84375 L 384.5625,336.84375 L 384.5625,334.03125 L 386.875,334.03125 z"
     id="path3388" />
  <path
     style="font-size:28px;font-style:normal;font-variant:normal;font-weight:normal;font-stretch:normal;text-align:start;line-height:100%;text-anchor:start;fill:#000000;fill-opacity:1;font-family:Arial Narrow"
     d="M 465.46875,316.71875 C 466.79948,316.71876 467.91405,317.20314 468.84375,318.1875 C 469.77341,319.17189 470.24999,320.41147 470.25,321.90625 C 470.24998,322.81772 470.05272,323.64194 469.65625,324.34375 C 469.25977,325.04558 468.71093,325.59897 468,326 C 468.65623,326.1823 469.19661,326.45574 469.625,326.875 C 470.05339,327.29428 470.39192,327.86069 470.65625,328.5625 C 470.92058,329.26433 471.06249,330.07162 471.0625,330.9375 C 471.06248,332.77865 470.52212,334.26628 469.4375,335.4375 C 468.35284,336.60872 467.04426,337.1875 465.53125,337.1875 C 464.12761,337.1875 462.94401,336.67709 461.96875,335.65625 C 460.9935,334.63542 460.41797,333.28516 460.28125,331.5625 L 462.3125,331.21875 C 462.73178,333.84376 463.79557,335.15626 465.5,335.15625 C 466.42055,335.15626 467.23176,334.7793 467.90625,334 C 468.5807,333.2207 468.90624,332.20834 468.90625,330.96875 C 468.90625,329.80209 468.58853,328.8672 467.96875,328.15625 C 467.34894,327.44532 466.58984,327.09376 465.6875,327.09375 C 465.30469,327.09376 464.84635,327.16147 464.28125,327.34375 L 464.5,325.1875 L 464.8125,325.21875 C 465.806,325.21876 466.6302,324.92319 467.25,324.3125 C 467.86977,323.70183 468.15624,322.8646 468.15625,321.84375 C 468.15625,320.90496 467.92577,320.16343 467.40625,319.59375 C 466.8867,319.02411 466.24738,318.75002 465.5,318.75 C 464.72524,318.75002 464.06445,319.02801 463.53125,319.625 C 462.99805,320.22202 462.64583,321.13152 462.5,322.34375 L 460.5,321.90625 C 460.75522,320.19272 461.32552,318.90627 462.21875,318.03125 C 463.11196,317.15626 464.20182,316.71877 465.46875,316.71875 z"
     id="path3393" />
  <path
     style="font-size:28px;font-style:normal;font-variant:normal;font-weight:normal;font-stretch:normal;text-align:start;line-height:100%;text-anchor:start;fill:#000000;fill-opacity:1;font-family:Arial Narrow"
     d="M 529.90798,316.71875 C 531.58506,316.71876 532.82789,317.27606 533.68923,318.40625 C 534.55056,319.53647 535.00172,320.84116 535.00173,322.28125 C 535.00174,323.5573 534.64495,324.76629 533.97048,325.9375 C 533.296,327.10874 532.01344,328.67449 530.12673,330.625 C 528.92361,331.85547 528.16513,332.67839 527.81423,333.125 C 527.46333,333.57161 527.18922,334.02214 526.97048,334.46875 L 535.03298,334.46875 L 535.03298,336.84375 L 524.15798,336.84375 C 524.13065,335.88671 524.42685,334.8099 525.03298,333.625 C 525.63911,332.44011 526.73219,331.05078 528.34548,329.4375 C 530.23221,327.5599 531.48088,326.0879 532.06423,325.0625 C 532.64757,324.03712 532.93922,323.10288 532.93923,322.21875 C 532.93924,321.19793 532.62997,320.36135 532.03298,319.71875 C 531.43598,319.07619 530.68922,318.75002 529.81423,318.75 C 528.87543,318.75002 528.10329,319.08856 527.50173,319.78125 C 526.90018,320.47397 526.62673,321.487 526.62673,322.78125 L 524.53298,322.5 C 524.67883,320.57684 525.21462,319.15822 526.15798,318.1875 C 527.10135,317.21682 528.36761,316.71877 529.90798,316.71875 z M 553.68923,317.0625 L 553.68923,319.4375 L 547.15798,319.4375 L 546.25173,324.8125 C 547.227,323.97397 548.28297,323.56251 549.37673,323.5625 C 550.75303,323.56251 551.92294,324.14129 552.93923,325.3125 C 553.95551,326.48373 554.47047,328.07553 554.47048,330.0625 C 554.47048,332.02214 553.95549,333.69466 552.93923,335.09375 C 551.92296,336.49284 550.55901,337.1875 548.84548,337.1875 C 547.42361,337.1875 546.23154,336.67644 545.25173,335.6875 C 544.27192,334.69857 543.73219,333.34376 543.59548,331.59375 L 545.68923,331.375 C 545.85331,332.65104 546.23545,333.5944 546.81423,334.21875 C 547.39302,334.8431 548.07985,335.15626 548.84548,335.15625 C 549.80252,335.15626 550.62151,334.72331 551.31423,333.84375 C 552.00694,332.96419 552.34547,331.77214 552.34548,330.25 C 552.34549,328.81902 552.0154,327.69467 551.34548,326.90625 C 550.67556,326.11785 549.82595,325.71876 548.81423,325.71875 C 548.20356,325.71876 547.62868,325.90821 547.09548,326.25 C 546.56229,326.5918 546.15537,327.04558 545.84548,327.65625 L 543.93923,327.375 L 545.53298,317.0625 L 553.68923,317.0625 z M 540.68923,334.03125 L 540.68923,336.84375 L 538.37673,336.84375 L 538.37673,334.03125 L 540.68923,334.03125 z"
     id="path3398" />
  <path
     style="fill:#000000;fill-opacity:1;fill-rule:evenodd;stroke:none;stroke-width:1px;stroke-linecap:butt;stroke-linejoin:miter;stroke-opacity:1"
     d="M 613.34548,316.71875 C 615.02257,316.71876 616.29664,317.27606 617.15798,318.40625 C 618.01931,319.53647 618.43922,320.84116 618.43923,322.28125 C 618.43923,323.5573 618.1137,324.76629 617.43923,325.9375 C 616.76476,327.10874 615.48219,328.67449 613.59548,330.625 C 612.39237,331.85547 611.60264,332.67839 611.25173,333.125 C 610.90083,333.57161 610.62673,334.02214 610.40798,334.46875 L 618.47048,334.46875 L 618.47048,336.84375 L 607.59548,336.84375 C 607.56815,335.88671 607.86436,334.8099 608.47048,333.625 C 609.07661,332.44011 610.20095,331.05078 611.81423,329.4375 C 613.70095,327.5599 614.91839,326.0879 615.50173,325.0625 C 616.08506,324.03712 616.37672,323.10288 616.37673,322.21875 C 616.37673,321.19793 616.09873,320.36135 615.50173,319.71875 C 614.90473,319.07619 614.15798,318.75002 613.28298,318.75 C 612.34419,318.75002 611.57204,319.08856 610.97048,319.78125 C 610.36893,320.47397 610.06423,321.487 610.06423,322.78125 L 608.00173,322.5 C 608.14757,320.57684 608.68337,319.15822 609.62673,318.1875 C 610.5701,317.21682 611.80511,316.71877 613.34548,316.71875 z"
     id="rect3403" />
  <path
     style="font-size:28px;font-style:normal;font-variant:normal;font-weight:normal;font-stretch:normal;text-align:start;line-height:100%;text-anchor:start;fill:#000000;fill-opacity:1;stroke:none;stroke-opacity:1;font-family:Arial Narrow"
     d="M 677.375,316.71875 L 677.375,336.84375 L 675.375,336.84375 L 675.375,321.15625 C 674.91017,321.70314 674.28385,322.2741 673.5,322.84375 C 672.71615,323.41342 671.96875,323.83335 671.3125,324.125 L 671.3125,321.75 C 672.42449,321.11199 673.42903,320.32684 674.28125,319.40625 C 675.13347,318.4857 675.71614,317.59377 676.0625,316.71875 L 677.375,316.71875 z M 699.09375,317.0625 L 699.09375,319.4375 L 692.53125,319.4375 L 691.65625,324.8125 C 692.63152,323.97397 693.65624,323.56251 694.75,323.5625 C 696.12631,323.56251 697.32747,324.14129 698.34375,325.3125 C 699.36003,326.48373 699.87499,328.07553 699.875,330.0625 C 699.87501,332.02214 699.36002,333.69466 698.34375,335.09375 C 697.32748,336.49284 695.96353,337.1875 694.25,337.1875 C 692.82814,337.1875 691.63606,336.67644 690.65625,335.6875 C 689.67645,334.69857 689.10547,333.34376 688.96875,331.59375 L 691.09375,331.375 C 691.25782,332.65104 691.63997,333.5944 692.21875,334.21875 C 692.79753,334.8431 693.45312,335.15626 694.21875,335.15625 C 695.17579,335.15626 695.99479,334.72331 696.6875,333.84375 C 697.38021,332.96419 697.74999,331.77214 697.75,330.25 C 697.75001,328.81902 697.41991,327.69467 696.75,326.90625 C 696.08008,326.11785 695.23046,325.71876 694.21875,325.71875 C 693.60808,325.71876 693.0332,325.90821 692.5,326.25 C 691.9668,326.5918 691.52864,327.04558 691.21875,327.65625 L 689.34375,327.375 L 690.9375,317.0625 L 699.09375,317.0625 z M 686.09375,334.03125 L 686.09375,336.84375 L 683.78125,336.84375 L 683.78125,334.03125 L 686.09375,334.03125 z"
     id="path3408" />
  <path
     style="font-size:28px;font-style:normal;font-variant:normal;font-weight:normal;font-stretch:normal;text-align:start;line-height:100%;text-anchor:start;fill:#000000;fill-opacity:1;font-family:Arial Narrow"
     d="M 770.25,316.71875 L 770.25,336.84375 L 768.21875,336.84375 L 768.21875,321.15625 C 767.75391,321.70314 767.1276,322.2741 766.34375,322.84375 C 765.55991,323.41342 764.84375,323.83335 764.1875,324.125 L 764.1875,321.75 C 765.29949,321.11199 766.30403,320.32684 767.15625,319.40625 C 768.00847,318.4857 768.59114,317.59377 768.9375,316.71875 L 770.25,316.71875 z"
     id="path3413" />
  <path
     style="font-size:28px;font-style:normal;font-variant:normal;font-weight:normal;font-stretch:normal;text-align:start;line-height:100%;text-anchor:start;fill:#000000;fill-opacity:1;font-family:Arial Narrow"
     d="M 830.25,316.71875 C 831.81772,316.71876 833.06639,317.40888 833.96875,318.8125 C 835.0625,320.50783 835.59374,323.2409 835.59375,326.96875 C 835.59375,330.31381 835.15233,332.85742 834.25,334.59375 C 833.34766,336.33008 831.99609,337.1875 830.21875,337.1875 C 828.65105,337.1875 827.37304,336.40625 826.375,334.875 C 825.37696,333.34375 824.875,330.72396 824.875,326.96875 C 824.87501,323.60548 825.3431,321.04429 826.25,319.3125 C 827.15691,317.58075 828.48176,316.71877 830.25,316.71875 z M 854.1875,317.0625 L 854.1875,319.4375 L 847.625,319.4375 L 846.75,324.8125 C 847.72527,323.97397 848.74999,323.56251 849.84375,323.5625 C 851.22006,323.56251 852.42122,324.14129 853.4375,325.3125 C 854.45378,326.48373 854.96874,328.07553 854.96875,330.0625 C 854.96876,332.02214 854.45377,333.69466 853.4375,335.09375 C 852.42123,336.49284 851.05728,337.1875 849.34375,337.1875 C 847.92189,337.1875 846.72981,336.67644 845.75,335.6875 C 844.7702,334.69857 844.19922,333.34376 844.0625,331.59375 L 846.1875,331.375 C 846.35157,332.65104 846.73372,333.5944 847.3125,334.21875 C 847.89128,334.8431 848.54687,335.15626 849.3125,335.15625 C 850.26954,335.15626 851.08854,334.72331 851.78125,333.84375 C 852.47396,332.96419 852.84374,331.77214 852.84375,330.25 C 852.84376,328.81902 852.51366,327.69467 851.84375,326.90625 C 851.17383,326.11785 850.32421,325.71876 849.3125,325.71875 C 848.70183,325.71876 848.12695,325.90821 847.59375,326.25 C 847.06055,326.5918 846.62239,327.04558 846.3125,327.65625 L 844.4375,327.375 L 846.03125,317.0625 L 854.1875,317.0625 z M 830.15625,318.75 C 829.2448,318.75002 828.49023,319.31643 827.875,320.4375 C 827.25978,321.5586 826.9375,323.7422 826.9375,326.96875 C 826.93751,330.22266 827.25064,332.39258 827.875,333.5 C 828.49936,334.60742 829.30599,335.15626 830.28125,335.15625 C 831.20183,335.15626 831.97395,334.58985 832.59375,333.46875 C 833.21355,332.34766 833.53124,330.19532 833.53125,326.96875 C 833.53126,323.70574 833.21809,321.50913 832.59375,320.40625 C 831.96941,319.3034 831.14974,318.75002 830.15625,318.75 z M 841.1875,334.03125 L 841.1875,336.84375 L 838.875,336.84375 L 838.875,334.03125 L 841.1875,334.03125 z"
     id="path3418" />
</svg>
