<?xml version="1.0" encoding="utf-8"?>
<!-- Generator: Adobe Illustrator 16.0.4, SVG Export Plug-In . SVG Version: 6.00 Build 0)  -->
<!DOCTYPE svg PUBLIC "-//W3C//DTD SVG 1.1//EN" "http://www.w3.org/Graphics/SVG/1.1/DTD/svg11.dtd">
<svg version="1.1" id="Layer_2" xmlns="http://www.w3.org/2000/svg" xmlns:xlink="http://www.w3.org/1999/xlink" x="0px" y="0px"
	 width="818.928px" height="484.148px" viewBox="0 0 818.928 484.148" enable-background="new 0 0 818.928 484.148"
	 xml:space="preserve">
<rect x="114.436" y="36.252" fill="none" stroke="#000000" stroke-miterlimit="10" width="649" height="390.935"/>
<line fill="none" stroke="#000000" stroke-miterlimit="10" x1="285.063" y1="433.505" x2="285.063" y2="427.17"/>
<line fill="none" stroke="#000000" stroke-miterlimit="10" x1="225.267" y1="433.505" x2="225.267" y2="427.17"/>
<line fill="none" stroke="#000000" stroke-miterlimit="10" x1="165.471" y1="433.505" x2="165.471" y2="427.17"/>
<line fill="none" stroke="#636363" stroke-width="0.5" stroke-miterlimit="10" x1="179.145" y1="427.188" x2="179.145" y2="36.326"/>
<line fill="none" stroke="#636363" stroke-width="0.5" stroke-miterlimit="10" x1="233.145" y1="427.188" x2="233.145" y2="36.326"/>
<line fill="none" stroke="#636363" stroke-width="0.5" stroke-miterlimit="10" x1="266.145" y1="427.188" x2="266.145" y2="36.326"/>
<line fill="none" stroke="#636363" stroke-width="0.5" stroke-miterlimit="10" x1="333.895" y1="427.188" x2="333.895" y2="36.326"/>
<line fill="none" stroke="#636363" stroke-width="0.5" stroke-miterlimit="10" x1="406.145" y1="427.188" x2="406.145" y2="36.326"/>
<line fill="none" stroke="#636363" stroke-width="0.5" stroke-miterlimit="10" x1="463.145" y1="427.188" x2="463.145" y2="36.326"/>
<line fill="none" stroke="#636363" stroke-width="0.5" stroke-miterlimit="10" x1="524.395" y1="427.188" x2="524.395" y2="36.326"/>
<line fill="none" stroke="#636363" stroke-width="0.5" stroke-miterlimit="10" x1="589.145" y1="427.188" x2="589.145" y2="36.326"/>
<line fill="none" stroke="#636363" stroke-width="0.5" stroke-miterlimit="10" x1="684.895" y1="427.188" x2="684.895" y2="36.326"/>
<line fill="none" stroke="#636363" stroke-width="0.5" stroke-miterlimit="10" x1="735.645" y1="427.188" x2="735.645" y2="36.326"/>
<line fill="none" stroke="#636363" stroke-width="0.5" stroke-miterlimit="10" x1="763.436" y1="427.188" x2="763.436" y2="36.326"/>
<line fill="none" stroke="#000000" stroke-miterlimit="10" x1="464.453" y1="433.505" x2="464.453" y2="427.17"/>
<line fill="none" stroke="#000000" stroke-miterlimit="10" x1="404.657" y1="433.505" x2="404.657" y2="427.17"/>
<line fill="none" stroke="#000000" stroke-miterlimit="10" x1="344.86" y1="433.505" x2="344.86" y2="427.17"/>
<line fill="none" stroke="#000000" stroke-miterlimit="10" x1="643.843" y1="433.505" x2="643.843" y2="427.17"/>
<line fill="none" stroke="#000000" stroke-miterlimit="10" x1="584.046" y1="433.505" x2="584.046" y2="427.17"/>
<line fill="none" stroke="#000000" stroke-miterlimit="10" x1="524.25" y1="433.505" x2="524.25" y2="427.17"/>
<line fill="none" stroke="#000000" stroke-miterlimit="10" x1="763.436" y1="433.505" x2="763.436" y2="427.17"/>
<line fill="none" stroke="#000000" stroke-miterlimit="10" x1="703.639" y1="433.505" x2="703.639" y2="427.17"/>
<line fill="none" stroke="#000000" stroke-miterlimit="10" x1="769.809" y1="385.605" x2="763.475" y2="385.605"/>
<line fill="none" stroke="#000000" stroke-miterlimit="10" x1="769.809" y1="335.708" x2="763.475" y2="335.708"/>
<line fill="none" stroke="#000000" stroke-miterlimit="10" x1="769.809" y1="285.812" x2="763.475" y2="285.812"/>
<line fill="none" stroke="#000000" stroke-miterlimit="10" x1="769.809" y1="235.914" x2="763.475" y2="235.914"/>
<line fill="none" stroke="#000000" stroke-miterlimit="10" x1="769.809" y1="186.017" x2="763.475" y2="186.017"/>
<line fill="none" stroke="#000000" stroke-miterlimit="10" x1="769.809" y1="136.12" x2="763.475" y2="136.12"/>
<line fill="none" stroke="#000000" stroke-miterlimit="10" x1="769.809" y1="86.223" x2="763.475" y2="86.223"/>
<line fill="none" stroke="#000000" stroke-miterlimit="10" x1="769.809" y1="36.326" x2="763.475" y2="36.326"/>
<line fill="none" stroke="#000000" stroke-miterlimit="10" x1="114.436" y1="433.505" x2="114.436" y2="427.17"/>
<text transform="matrix(1 0 0 1 758.9863 452.6895)" font-family="'LiberationSans'" font-size="16">0</text>
<text transform="matrix(1 0 0 1 774.8086 389.9316)" font-family="'LiberationSans'" font-size="16">3</text>
<text transform="matrix(1 0 0 1 774.8086 340.0352)" font-family="'LiberationSans'" font-size="16">2</text>
<text transform="matrix(1 0 0 1 774.8086 290.1367)" font-family="'LiberationSans'" font-size="16">1</text>
<text transform="matrix(1 0 0 1 774.8086 240.2402)" font-family="'LiberationSans'" font-size="16">0</text>
<text transform="matrix(1 0 0 1 774.8086 190.3438)" font-family="'LiberationSans'" font-size="16">–1</text>
<text transform="matrix(1 0 0 1 774.8086 90.5488)" font-family="'LiberationSans'" font-size="16">–3</text>
<text transform="matrix(1 0 0 1 774.8086 140.4463)" font-family="'LiberationSans'" font-size="16">–2</text>
<text transform="matrix(1 0 0 1 774.8086 40.6523)" font-family="'LiberationSans'" font-size="16">–4</text>
<text transform="matrix(1 0 0 1 694.7412 452.6895)" font-family="'LiberationSans'" font-size="16">50</text>
<text transform="matrix(1 0 0 1 630.4961 452.6895)" font-family="'LiberationSans'" font-size="16">100</text>
<text transform="matrix(1 0 0 1 570.6992 452.6895)" font-family="'LiberationSans'" font-size="16">150</text>
<text transform="matrix(1 0 0 1 510.9023 452.6895)" font-family="'LiberationSans'" font-size="16">200</text>
<text transform="matrix(1 0 0 1 451.106 452.6895)" font-family="'LiberationSans'" font-size="16">350</text>
<text transform="matrix(1 0 0 1 391.3096 452.6895)" font-family="'LiberationSans'" font-size="16">300</text>
<text transform="matrix(1 0 0 1 354.3979 478.6904)" font-family="'LiberationSans'" font-size="18">Millions of Years Ago</text>
<text transform="matrix(1 0 0 1 0 394.1914)" fill="#0000CC" font-family="'LiberationSans'" font-size="16">Glacial Periods</text>
<text transform="matrix(1 0 0 1 691.9424 359.6904)" fill="#0000CC" font-family="'LiberationSans-Bold'" font-size="20">COLD</text>
<text transform="matrix(1 0 0 1 706.3857 111.6904)" fill="#CC0000" font-family="'LiberationSans-Bold'" font-size="20">HOT</text>
<g>
	<text transform="matrix(1 0 0 1 497.5918 75.0947)" font-family="'LiberationSans'" font-size="20">Short-term average</text>
</g>
<g>
	<text transform="matrix(1 0 0 1 497.5918 104.0947)" font-family="'LiberationSans'" font-size="20">Long-term average</text>
</g>
<text transform="matrix(1 0 0 1 282.8477 20.2559)" font-family="'LiberationSans'" font-size="24">Phanerozoic Climate Change</text>
<text transform="matrix(0 -1 1 0 807.4688 312.9941)"><tspan x="0" y="0" font-family="'LiberationSans'" font-size="18">18</tspan><tspan x="20.021" y="6" font-family="'LiberationSans'" font-size="18">O (parts per thousand)</tspan></text>
<g>
	<path d="M805.393,317.355l-1.916,2.082c-0.123,0.146-0.285,0.273-0.484,0.379c-0.135,0.088-0.295,0.166-0.482,0.236
		c-0.07,0.029-0.191,0.059-0.361,0.088c-0.141,0.023-0.242,0.035-0.307,0.035c-0.404,0-0.742-0.16-1.012-0.482
		c-0.041-0.064-0.172-0.238-0.395-0.52c-0.082-0.123-0.158-0.34-0.229-0.65c-0.064-0.375-0.098-0.693-0.098-0.957
		c0-0.135,0.016-0.428,0.045-0.879c0.047-0.322,0.088-0.568,0.123-0.738c0.041-0.193,0.154-0.48,0.342-0.861
		c0.176-0.34,0.367-0.604,0.572-0.791c0.217-0.182,0.463-0.273,0.738-0.273c0.205,0,0.375,0.086,0.51,0.256
		c0.129,0.182,0.193,0.365,0.193,0.553c0,0.199-0.064,0.404-0.193,0.615c-0.158,0.234-0.363,0.469-0.615,0.703
		c-0.088,0.088-0.154,0.151-0.199,0.189c-0.043,0.038-0.096,0.092-0.158,0.162c-0.061,0.07-0.111,0.128-0.152,0.172
		s-0.07,0.078-0.088,0.102c-0.117,0.158-0.211,0.357-0.281,0.598c-0.076,0.234-0.115,0.451-0.115,0.65
		c0,0.258,0.045,0.459,0.133,0.605c0.1,0.188,0.213,0.344,0.342,0.467c0.152,0.146,0.35,0.219,0.59,0.219
		c0.135,0,0.271-0.035,0.412-0.105c0.129-0.041,0.328-0.189,0.598-0.447c0.188-0.193,0.531-0.65,1.029-1.371
		c0.48-0.803,0.744-1.242,0.791-1.318c0.105-0.164,0.352-0.492,0.738-0.984c0.369-0.422,0.77-0.766,1.203-1.029
		c0.428-0.258,0.859-0.457,1.293-0.598c0.416-0.117,0.879-0.176,1.389-0.176c0.586,0,1.145,0.104,1.678,0.309
		c0.516,0.193,0.953,0.469,1.311,0.826c0.375,0.398,0.656,0.746,0.844,1.045c0.223,0.316,0.375,0.639,0.457,0.967
		c0.082,0.287,0.123,0.643,0.123,1.064c0,0.58-0.121,1.096-0.361,1.547c-0.217,0.439-0.492,0.805-0.826,1.098
		c-0.34,0.299-0.729,0.545-1.168,0.738c-0.475,0.229-1.018,0.344-1.627,0.344c-0.334,0-0.693-0.047-1.08-0.141
		c-0.334-0.088-0.771-0.293-1.311-0.615c-0.51-0.299-0.99-0.877-1.441-1.732c-0.064-0.158-0.143-0.352-0.236-0.58
		s-0.168-0.412-0.225-0.553C805.43,317.461,805.398,317.379,805.393,317.355z M808.539,315.176
		c-0.475,0.105-0.949,0.311-1.424,0.615c-0.486,0.299-0.889,0.633-1.205,1.002c0.141,0.674,0.428,1.227,0.861,1.66
		c0.439,0.439,0.902,0.686,1.389,0.738c0.498,0.07,0.924,0.105,1.275,0.105c0.398,0,0.838-0.047,1.318-0.141
		c0.492-0.105,0.904-0.264,1.238-0.475c0.381-0.234,0.633-0.492,0.756-0.773c0.123-0.246,0.186-0.527,0.186-0.844
		c0-0.234-0.068-0.492-0.203-0.773c-0.135-0.252-0.324-0.475-0.57-0.668c-0.275-0.193-0.602-0.342-0.977-0.447
		c-0.381-0.105-0.805-0.158-1.273-0.158C809.459,315.018,809.002,315.07,808.539,315.176z"/>
</g>
<text transform="matrix(1 0 0 1 331.5132 452.6895)" font-family="'LiberationSans'" font-size="16">350</text>
<text transform="matrix(1 0 0 1 271.7163 452.6895)" font-family="'LiberationSans'" font-size="16">400</text>
<text transform="matrix(1 0 0 1 211.9199 452.6895)" font-family="'LiberationSans'" font-size="16">450</text>
<text transform="matrix(1 0 0 1 152.1235 452.6895)" font-family="'LiberationSans'" font-size="16">500</text>
<text transform="matrix(1 0 0 1 101.0884 452.6895)" font-family="'LiberationSans'" font-size="16">542</text>
<text transform="matrix(1 0 0 1 134.3491 419.6895)" font-family="'LiberationSans'" font-size="16">Cm</text>
<text transform="matrix(1 0 0 1 61.3516 419.6895)" font-family="'LiberationSans'" font-size="16">Period</text>
<text transform="matrix(1 0 0 1 199.9224 419.6895)" font-family="'LiberationSans'" font-size="16">O</text>
<text transform="matrix(1 0 0 1 244.3091 419.6895)" font-family="'LiberationSans'" font-size="16">S</text>
<text transform="matrix(1 0 0 1 294.2427 419.6895)" font-family="'LiberationSans'" font-size="16">D</text>
<text transform="matrix(1 0 0 1 364.2427 419.6895)" font-family="'LiberationSans'" font-size="16">C</text>
<text transform="matrix(1 0 0 1 429.3091 419.6895)" font-family="'LiberationSans'" font-size="16">P</text>
<text transform="matrix(1 0 0 1 486.2188 419.6895)" font-family="'LiberationSans'" font-size="16">Tr</text>
<text transform="matrix(1 0 0 1 552.7695 419.6895)" font-family="'LiberationSans'" font-size="16">J</text>
<text transform="matrix(1 0 0 1 631.6836 419.6895)" font-family="'LiberationSans'" font-size="16">K</text>
<text transform="matrix(1 0 0 1 700.4844 419.6895)" font-family="'LiberationSans'" font-size="16">Pg</text>
<text transform="matrix(1 0 0 1 744.7422 419.6895)" font-family="'LiberationSans'" font-size="16">N</text>
<rect x="211.769" y="380.688" fill="#0000CC" width="45.333" height="16.667"/>
<rect x="371.769" y="380.688" fill="#0000CC" width="72.333" height="16.667"/>
<rect x="697.103" y="380.688" fill="#0000CC" width="66.333" height="16.667"/>
<rect x="556.603" y="380.688" fill="#3366CC" width="78.333" height="16.667"/>
<line fill="none" stroke="#000000" stroke-width="3" stroke-linecap="round" stroke-miterlimit="10" x1="471.422" y1="98.688" x2="490.422" y2="98.688"/>
<line fill="none" stroke="#FF9900" stroke-width="2" stroke-linecap="round" stroke-miterlimit="10" x1="471.422" y1="69.688" x2="490.422" y2="69.688"/>
<path fill="#FFFFAE" stroke="#FFAC00" stroke-linecap="round" stroke-linejoin="round" stroke-miterlimit="10" d="M137.936,220.54
	c1.857-0.979,12.432-9.652,14.689-9.652c2.922,0,1.788,35.924,3.688,35.924s19.094-11.734,20.318-15.328
	c4.301-12.626,4.854-108.127,7.468-108.127c3.167,0,6.5,26.333,14.667,76c0.863,5.25,5.283,9.245,6,12.167
	c1.545,6.298,8.167,106.665,14,106.665c3.21,0,1.717,0.166,3.5,0.166c5.334,0,4.333,44.167,11.667,44.167
	c5.941,0,9.5-63.333,14.167-63.333c4.277,0,3.65,6.834,7.333,6.834c5.333,0,10.667-17.667,12.333-33.167
	c2.131-19.817,2.516-23.167,5.5-23.167c3.564,0,2.267,7.667,5,7.667c3.333,0,3-27.667,9.333-27.667c5.109,0,6.1,29.833,8.833,29.833
	c2,0,6.944-8.662,8-11.333c2.833-7.167,4.721-29.741,5.5-34.667c2.012-12.715,9.266-43.716,11.167-43.667
	c6.5,0.167,4.667,20.333,6.167,36.833c0.189,2.082,0.928,16.85,4.833,33.501c6.333,27,8.505,89.833,11,89.833
	c2.852,0,4.194-14.834,6.333-14.834s1.289,4.169,3.666,4.169c4.397,0,7.152-71.166,11.667-71.166c1.497,0,3.5,19.665,6.833,35.832
	c0.79,3.832,2.971,7.084,4.5,13.002c2.288,8.854,4.135,20.165,5.833,20.165c3.208,0,3.791-27.165,6.167-27.165s4.718,26.5,11.5,26.5
	c3.168,0,4.553-4.076,7.499-6.832c5.171-4.837,5.778-3.587,7.921-3.587c2,0,1.579-2.497,1.913-6.08
	c0.881-9.468,0.146-16.999,2.167-16.999s1.17,7.499,2.833,7.499c1.662,0,8.669-106.67,10.837-106.67s1.284,16.393,5.83,32.336
	c2.576,9.034,6.85,19.692,7.667,25.5c1.538,10.925,3.461,41.497,6.669,41.497c4.278,0,4.964-77.796,11.464-77.796
	c0.814,0,2.353-3.369,3.536-3.454c0.604-0.043,2.744,28.5,4.75,28.5c4.166,0,1.926-14.583,9.25-14.25
	c6.458,0.294,6.316,52.25,10,52.25s2.136-15.409,5.832-17.75c5-3.166,8.126-5.333,11.334-5.333s0.833,31,5.166,31
	c2.852,0,8.975-16.667,11.834-16.667c3.445,0,4.555,21.667,8,21.667c4.5,0,11.666-74,15.833-74c5.348,0,4.746,89.5,8.667,89.5
	c3.09,0,2.03-12.667,5-12.667s4.102,8.667,6.834,8.667c5.94,0,7.333-57.667,15.5-57.667c4.509,0,5.019,7.152,7.5,22
	c2.288,13.688,7.108,31.667,9.667,31.667c2.834,0,6.693-21.438,8.832-25.834s5.12-9.793,5.833-13.833s1.099-16.999,3-16.999
	s2.435,29.833,5.167,29.833s8-55.667,16.833-81.333c4.097-11.902,8.181-39.117,11.99-39.117c2.495,0,1.798,2.784,3.343,2.784
	s2.479-2,4.5-2c3.005,0,3.987,4.376,8.336,27.833c4.931,26.596,11.737,60.166,14.833,60.166c7.333,0,14.6-25.999,17.332-25.999
	c2.255,0,7.042,15.96,10.335,38.667c4.125,28.447,7.836,61.666,12.832,61.666c3.664,0,8.336-42.834,14.165-42.833
	c8.332,0.001,9.838,55.832,22.799,73.002v-4.167c-10.818-15.804-14.467-72.002-22.799-72.002c-7.016,0-10.501,43-14.165,43
	c-4.996,0-7.208-34.553-11.333-63c-3.293-22.707-9.245-42.667-11.5-42.667c-2.732,0-8.834,25.167-16.167,25.167
	c-3.096,0-9.069-29.571-14-56.167c-4.349-23.457-7.661-44.333-10.666-44.333c-2.021,0-3.122,2.667-4.667,2.667
	s-1.847-3.784-4.342-3.784c-3.81,0-9.025,39.95-12.825,51.95c-6.085,19.216-10.768,62.333-13.5,62.333s-3.933-43-5.834-43
	s-3.953,36.46-4.666,40.5s-3.195,13.604-5.334,18s-5,27.667-7.834,27.667c-2.559,0-5.711-12.979-7.999-26.667
	c-2.481-14.848-4.158-30.5-8.667-30.5c-8.167,0-9.56,59.5-15.5,59.5c-2.732,0-5.697-16.167-8.667-16.167s-0.743,8.333-3.833,8.333
	c-3.921,0-2.652-84.667-8-84.667s-13.388,79.333-16.833,79.333s-3.555-24.333-7-24.333c-2.859,0-8.648,7.334-11.5,7.334
	c-6.833,0-3.292-56.334-6.5-56.334s-6.674,10.425-8.833,13.5c-3.921,5.585-3.983,21.167-7.667,21.167s-3.645-50.971-9.168-54.329
	c-9.061-5.508-8.667-38.833-12.833-38.833c-0.902,0-1.338,1.113-1.942,1.156c-1.184,0.084-1.722-6.296-2.536-6.296
	c-6.5,0-9.321,109.493-13.599,109.493c-3.208,0-5.347-36.004-6.885-46.929c-0.817-5.808-3.484-7.482-6.06-16.516
	c-4.546-15.943-7.812-139.176-7.812-139.176h-5.667c0,0-2.171,57.103-3.833,57.103c-1.664,0-0.594-4.516-2.614-4.516
	s-5.207,143.007-5.385,152.515c-0.594,31.726-7.167,67.833-14.667,67.833c-6.782,0-9.291-68-11.667-68s-4.792,35.166-8,35.166
	c-2.833,0-5.489-20.799-8.685-37.958c-2.798-15.02-3.484-28.875-4.981-28.875c-4.515,0-9.77,69.667-14.167,69.667
	c-2.376,0-0.527-1.167-2.667-1.167s-3.482,14.834-6.333,14.834c-2.495,0-4.257-43.386-7.667-72.334
	c-1.806-15.338-5.311-22.751-5.5-24.833c-1.5-16.5-2.432-127.667-4.333-127.667s-4.333,63.333-6.333,70.332
	c-1.292,4.52-6.716,15.685-8.728,28.4c-0.779,4.926-5.251,57.485-6.439,60.099s-5.833,11.333-7.833,11.333c-2.733,0-4.391-25-9.5-25
	c-7.333,0-6.767,18-9.5,18s-1.436-7.667-5-7.667c-2.984,0-4.203,18.85-6.333,38.667c-1.667,15.5-5.5,37.835-10.833,37.835
	c-3.683,0-4.389-9.501-8.667-9.501c-4.667,0-6.392,56.333-12.333,56.333c-7.333,0-8.167-56.334-13.501-56.334
	c-1.782,0-0.5,2.188-3.708,2.069s-9.914-94.771-11.459-101.069c-0.717-2.922-3.624-7.902-4.745-13.103
	c-10.255-47.563-16.088-109.23-17.588-109.23c-2.615,0-3.625,131.626-6.47,138.278c-1.493,3.491-18.417,15.328-20.318,15.328
	s-0.766-57.941-3.688-57.941c-2.257,0-12.833,8.674-14.689,9.652V220.54z"/>
<path fill="none" stroke="#FF9900" stroke-width="2" stroke-linecap="round" stroke-miterlimit="10" d="M137.936,197.188
	c1.857-0.979,12.432-9.652,14.689-9.652c2.922,0,1.788,46.933,3.688,46.933s18.826-11.837,20.318-15.328
	c2.845-6.652,4.365-122.008,6.98-122.008c1.901,0,14.407,88.859,16.546,93.73s4.028,6.348,4.745,9.27
	c1.545,6.298,8.801,104.917,12.009,105.036s1.426-1.069,3.208-1.069c5.695,0,7.114,50.378,13.656,50.378
	c5.941,0,9.03-60.005,13.308-60.005s4.159,8.437,7.842,8.437c2.258,0,6.535-7.486,9.268-18.773
	c4.69-19.371,5.214-47.768,8.198-47.768c3.564,0,2.733,7.367,5.466,7.367s4.041-22.457,9.506-22.457
	c5.109,0,5.593,27.211,8.326,27.211s7.842-9.148,9.03-11.763s5.042-42.363,5.821-47.29c2.012-12.715,9.497-36.716,10.813-41.229
	c0.832-2.852,1.986-28.343,3.887-28.343s2.521,78.008,4.787,92.98c0.312,2.067,3.533,11.036,5.339,26.374
	c3.409,28.948,5.584,72.48,8.08,72.48c2.852,0,3.801-14.854,5.94-14.854s0.95,2.021,3.327,2.021c4.397,0,8.083-68.679,12.598-68.679
	c1.497,0,3.141,15.874,5.938,30.894c3.196,17.159,7.355,34.226,9.515,34.226c3.208,0,5.219-29.948,7.595-29.948
	s3.921,47.415,10.703,47.415c4.149,0,15.081-16.049,15.675-47.774c0.178-9.508,2.496-78.419,4.516-78.419s0.951,4.516,2.614,4.516
	c2.193,0,4.438-103.508,7.883-103.508s4.236,90.914,9.828,110.526c2.576,9.034,5.242,10.708,6.06,16.516
	c1.538,10.925,3.677,46.929,6.885,46.929c4.278,0,5.34-94.798,14.021-94.817c3.265-0.007,4.183,15.751,6.053,19.213
	c3.448,6.382,5.829,4.669,11.064,9.427c4.784,4.347,4.626,51.681,8.31,51.681s3.803-13.07,7.724-18.655
	c2.159-3.075,6.179-8.792,9.387-8.792s1.782,43.369,5.347,43.369c2.852,0,9.022-11.882,11.882-11.882
	c3.445,0,4.635,22.576,8.08,22.576s10.455-76.164,15.803-76.164s4.396,86.856,8.316,86.856c3.09,0,2.021-10.336,4.99-10.336
	s4.991,12.357,7.724,12.357c5.94,0,7.478-58.459,14.972-58.459c7.604,0,10.806,55.012,16.753,55.012
	c2.971,0,6.304-21.501,8.442-25.897s4.396-10.337,5.109-14.377s2.844-31.136,4.745-31.136s2.852,35.171,5.584,35.171
	s6.748-42.689,12.833-61.906c3.8-12,11.05-54.058,14.859-54.058c2.495,0,2.376,2.614,3.921,2.614s1.9-1.664,3.921-1.664
	c6.411,0,17.937,93.749,23.763,93.749c3.442,0,6.295-4.165,7.958-6.542s6.416-19.13,9.148-19.13c2.255,0,7.398,17.097,10.691,39.804
	c4.125,28.447,6.892,63.811,11.888,63.811c4.515,0,7.718-42.538,14.733-42.538c7.004,0,11.87,57.743,22.688,73.547"/>
<path fill="none" stroke="#000000" stroke-width="3" stroke-linecap="round" stroke-miterlimit="10" d="M136.686,202.438
	c0,0,5.75,2.5,12.333,2.5c12.583,0,27.167-15.833,33-15.833c13.418,0,23.016,38.554,24.933,45.804s17.734,71.029,31.568,71.029
	c11.365,0,29.583-38.75,32.916-44.75s30.75-52.001,43.417-52.001c14.5,0,22.247,38.591,36.751,52.416
	c10.692,10.19,25.001,16.332,34.667,16.332c24.164,0,31.664-81.333,54.75-81.333c6.915,0,20.285,3.391,31.584,7.084
	c17.908,5.854,33.164,44.167,62.416,44.167c16.917,0,28.917,8.918,42.417,8.918c28.164,0,38.869-18.693,48.915-38.165
	c12.476-24.182,19.62-50.169,32.499-50.169c7.554,0,15.774,12.782,25.583,29.126c16.161,26.932,38.875,68.875,52.833,80.288
	c10.238,8.372,21.915,17.077,25.666,19.082"/>
</svg>
